# xmcd
#
# Track frame offsets: 
#        150
#        25587
#        55507
#        78584
#        112661
#        133314
#        159128
#        187317
#        214788
#
# Disc length: 3253 seconds
#
# Revision: 0
# Processed by: cddbd v1.5.1PL2 Copyright (c) Steve Scherf et al.
# Submitted via: ExactAudioCopy v0.95b3
#
DISCID=6e0cb309
DTITLE=The Carson Downey Band - Burnin' Up Live
DYEAR=2005
DGENRE=Blues
TTITLE0=All The Way
TTITLE1=Hurt Me Down So Deep
TTITLE2=State Of Mind
TTITLE3=Cold Love Woman
TTITLE4=Not Givin' Up On You
TTITLE5=Freedom
TTITLE6=Livin' It Up
TTITLE7=Love Is Like Music
TTITLE8=Burnin' Up
EXTD=
EXTT0=
EXTT1=
EXTT2=
EXTT3=
EXTT4=
EXTT5=
EXTT6=
EXTT7=
EXTT8=
PLAYORDER=
